# xmcd
#
# Track frame offsets:
#	183
#	26178
#	52588
#
# Disc length: 899 seconds
#
# Revision: 7
# Processed by: cddbd v1.5.2PL0 Copyright (c) Steve Scherf et al.
# Submitted via: audiograbber 1.83.01
#
DISCID=1a038103
DTITLE=Marusha - Deep
DYEAR=1995
DGENRE=Techno
TTITLE0=Deep
TTITLE1=Pinguin
TTITLE2=Deep (Short Version)
EXTD=
EXTT0=
EXTT1=
EXTT2=
PLAYORDER=
